<?xml version="1.0" encoding="UTF-8"?>
<svg version="1.1" xmlns="http://www.w3.org/2000/svg" width="1483" height="122">
<path d="M0 0 C40.92982456 0 40.92982456 0 48.625 7.5625 C52.5102629 12.60435851 52.65743631 17.8456657 52 24 C50.26357977 29.45462443 47.22716643 33.24251873 43 37 C43.51949219 37.20753906 44.03898437 37.41507813 44.57421875 37.62890625 C50.02387342 40.03642467 53.15667099 42.74045149 56 48 C58.02514522 54.07543566 58.10046489 61.45235531 55.5 67.375 C52.40854083 72.63705816 47.58271827 75.82093297 42.125 78.3125 C28.4681961 81.31699686 13.62058922 80 0 80 C0 53.6 0 27.2 0 0 Z M11 9 C11 16.92 11 24.84 11 33 C15.764375 33.0928125 15.764375 33.0928125 20.625 33.1875 C21.6145166 33.21481201 22.6040332 33.24212402 23.62353516 33.27026367 C28.85498926 33.31943744 32.47797861 32.93823894 37 30 C40.01872504 26.98127496 40.83354705 24.24455029 41 20 C39.79523967 16.05106336 38.88935735 13.70212422 35.625 11.125 C30.1991918 8.79965363 24.98668585 8.8747971 19.1875 8.9375 C15.1346875 8.9684375 15.1346875 8.9684375 11 9 Z M11 43 C11 51.91 11 60.82 11 70 C15.9190625 70.0928125 15.9190625 70.0928125 20.9375 70.1875 C21.95191162 70.21481201 22.96632324 70.24212402 24.01147461 70.27026367 C31.15050493 70.3346916 37.90218676 69.63314126 43.5 64.875 C45.55281093 60.94044572 46.20314397 57.43010123 46 53 C44.51949878 48.79225968 42.88510548 46.23687891 39 44 C35.74737761 42.95975092 32.7620819 42.88424425 29.359375 42.90234375 C27.91256348 42.90609009 27.91256348 42.90609009 26.43652344 42.90991211 C25.2199707 42.91901611 24.00341797 42.92812012 22.75 42.9375 C18.8725 42.958125 14.995 42.97875 11 43 Z " fill="#000000" transform="translate(21,24)"/>
<path d="M0 0 C3.3 0 6.6 0 10 0 C10 2.31 10 4.62 10 7 C10.68707031 6.57847656 11.37414063 6.15695313 12.08203125 5.72265625 C12.98308594 5.17480469 13.88414063 4.62695312 14.8125 4.0625 C15.70582031 3.51722656 16.59914063 2.97195312 17.51953125 2.41015625 C23.34773022 -0.90319781 29.46899042 -0.4429168 36 0 C40.80327816 1.62968366 43.5895185 4.28859366 47 8 C47.51949219 7.59007812 48.03898437 7.18015625 48.57421875 6.7578125 C49.27160156 6.21898437 49.96898437 5.68015625 50.6875 5.125 C51.37199219 4.59132813 52.05648438 4.05765625 52.76171875 3.5078125 C59.14135996 -0.78981666 65.52815323 -0.60226473 73 0 C77.78277212 1.59425737 80.29873177 3.75514993 83 8 C85.0726781 13.76098222 85.27899517 18.96783487 85.23046875 25.0546875 C85.23001053 25.99684113 85.22955231 26.93899475 85.2290802 27.90969849 C85.22607364 29.8880541 85.21823555 31.86640768 85.20581055 33.84472656 C85.18743261 36.88615196 85.18530191 39.9272746 85.18554688 42.96875 C85.1806357 44.89323182 85.17480913 46.81771157 85.16796875 48.7421875 C85.16685593 49.65563934 85.1657431 50.56909119 85.16459656 51.51022339 C85.11608535 57.88391465 85.11608535 57.88391465 84 59 C82.50261876 59.0979057 81.00057108 59.12974864 79.5 59.125 C78.6853125 59.12757812 77.870625 59.13015625 77.03125 59.1328125 C75 59 75 59 74 58 C73.87663689 54.95755252 73.81381394 51.93433459 73.7890625 48.890625 C73.76098518 47.00259563 73.73232066 45.11457491 73.703125 43.2265625 C73.66190275 40.23991211 73.62503024 37.25342182 73.59863281 34.26660156 C73.57099131 31.39093258 73.52510791 28.51600697 73.4765625 25.640625 C73.47330963 24.75086975 73.47005676 23.8611145 73.46670532 22.94439697 C73.37225926 18.17111014 73.13856888 14.85620309 70 11 C66.54427522 9.27213761 62.78556935 9.64250947 59 10 C54.7955426 11.5865877 51.71314728 13.40741144 49 17 C48.39244364 20.1025539 48.41888716 23.17038017 48.42578125 26.32421875 C48.40453438 27.67722832 48.40453438 27.67722832 48.38285828 29.05757141 C48.34096115 31.93433611 48.3257139 34.81047308 48.3125 37.6875 C48.28348404 40.57494745 48.24900544 43.46223428 48.21000671 46.3495636 C48.18744469 48.14570355 48.17167093 49.94194345 48.16316223 51.73820496 C48.10959212 57.89040788 48.10959212 57.89040788 47 59 C45.50261876 59.0979057 44.00057108 59.12974864 42.5 59.125 C41.6853125 59.12757812 40.870625 59.13015625 40.03125 59.1328125 C38 59 38 59 37 58 C36.87663689 54.95755252 36.81381394 51.93433459 36.7890625 48.890625 C36.76098518 47.00259563 36.73232066 45.11457491 36.703125 43.2265625 C36.66190275 40.23991211 36.62503024 37.25342182 36.59863281 34.26660156 C36.57099131 31.39093258 36.52510791 28.51600697 36.4765625 25.640625 C36.47330963 24.75086975 36.47005676 23.8611145 36.46670532 22.94439697 C36.37225926 18.17111014 36.13856888 14.85620309 33 11 C29.54427522 9.27213761 25.78556935 9.64250947 22 10 C17.7955426 11.5865877 14.71314728 13.40741144 12 17 C11.39244364 20.1025539 11.41888716 23.17038017 11.42578125 26.32421875 C11.41161667 27.22622513 11.39745209 28.12823151 11.38285828 29.05757141 C11.34096115 31.93433611 11.3257139 34.81047308 11.3125 37.6875 C11.28348404 40.57494745 11.24900544 43.46223428 11.21000671 46.3495636 C11.18744469 48.14570355 11.17167093 49.94194345 11.16316223 51.73820496 C11.10959212 57.89040788 11.10959212 57.89040788 10 59 C8.50261876 59.0979057 7.00057108 59.12974864 5.5 59.125 C4.6853125 59.12757812 3.870625 59.13015625 3.03125 59.1328125 C1 59 1 59 0 58 C-0.09376053 56.18944975 -0.1174411 54.37522799 -0.11352539 52.56225586 C-0.11344986 51.40112778 -0.11337433 50.23999969 -0.11329651 49.04368591 C-0.10813522 47.780168 -0.10297394 46.51665009 -0.09765625 45.21484375 C-0.0962413 43.92888809 -0.09482635 42.64293243 -0.09336853 41.31800842 C-0.08954418 37.89356557 -0.07971462 34.46916491 -0.06866455 31.04473877 C-0.05844864 27.55261811 -0.05387053 24.06049066 -0.04882812 20.56835938 C-0.03809227 13.71222222 -0.02101684 6.85611313 0 0 Z " fill="#000000" transform="translate(1152,45)"/>
<path d="M0 0 C3.3 0 6.6 0 10 0 C10.33 2.31 10.66 4.62 11 7 C11.54269531 6.57847656 12.08539062 6.15695313 12.64453125 5.72265625 C13.35996094 5.17480469 14.07539062 4.62695312 14.8125 4.0625 C15.52019531 3.51722656 16.22789063 2.97195312 16.95703125 2.41015625 C20.80168932 -0.24361347 24.25833915 -0.19179986 28.8125 -0.25 C30.01519531 -0.27578125 31.21789063 -0.3015625 32.45703125 -0.328125 C37.23076941 0.11398526 40.63117931 1.49429725 43.875 5.0625 C45 7 45 7 45 9 C45.75925781 8.43410156 46.51851562 7.86820313 47.30078125 7.28515625 C48.29464844 6.55167969 49.28851562 5.81820312 50.3125 5.0625 C51.29863281 4.33160156 52.28476563 3.60070313 53.30078125 2.84765625 C57.52886113 -0.04652867 60.78225609 -0.18571573 65.8125 -0.25 C67.01519531 -0.27578125 68.21789063 -0.3015625 69.45703125 -0.328125 C74.60262068 0.14842352 77.84508073 1.68467527 81.25 5.5625 C86.11351323 15.11582955 85.27942228 25.9120622 85.20581055 36.36206055 C85.18733272 39.08717011 85.18530279 41.81194314 85.18554688 44.53710938 C85.18063878 46.26562796 85.17481358 47.99414425 85.16796875 49.72265625 C85.16685593 50.53920181 85.1657431 51.35574738 85.16459656 52.19703674 C85.11612188 57.88387812 85.11612188 57.88387812 84 59 C82.50261876 59.0979057 81.00057108 59.12974864 79.5 59.125 C78.6853125 59.12757812 77.870625 59.13015625 77.03125 59.1328125 C75 59 75 59 74 58 C73.87665764 55.12646662 73.81382022 52.27330343 73.7890625 49.3984375 C73.76097434 47.61066823 73.73230976 45.82290795 73.703125 44.03515625 C73.6619909 41.2111047 73.62511456 38.38721728 73.59863281 35.56298828 C73.57088301 32.84111552 73.52498929 30.12001075 73.4765625 27.3984375 C73.47330963 26.56275238 73.47005676 25.72706726 73.46670532 24.86605835 C73.35593647 19.53656128 72.53184108 15.72191849 70 11 C66.21886499 9.10943249 62.1076128 9.36985485 58 10 C54.63889039 11.58052178 51.714319 13.45880385 49 16 C47.68636296 19.94091113 47.89667868 23.68419176 47.9375 27.7890625 C47.94128662 28.64809174 47.94507324 29.50712097 47.94897461 30.3921814 C47.96119752 33.136505 47.97983562 35.88072393 48 38.625 C48.02647643 42.24218448 48.04651951 45.85931818 48.0625 49.4765625 C48.07079834 50.31506744 48.07909668 51.15357239 48.08764648 52.01748657 C48.09619046 54.01185341 48.05339949 56.00632987 48 58 C47 59 47 59 44.71484375 59.09765625 C43.79832031 59.08605469 42.88179687 59.07445312 41.9375 59.0625 C41.01839844 59.05347656 40.09929687 59.04445312 39.15234375 59.03515625 C38.44207031 59.02355469 37.73179688 59.01195312 37 59 C36.970271 57.23740845 36.970271 57.23740845 36.93994141 55.43920898 C36.86356404 51.05748968 36.77489723 46.67608859 36.68261719 42.29467773 C36.64445975 40.40248929 36.60958433 38.51023158 36.578125 36.61791992 C36.53218577 33.88956028 36.47424035 31.16167207 36.4140625 28.43359375 C36.40251129 27.59477158 36.39096008 26.7559494 36.37905884 25.89170837 C36.25577668 20.9262116 35.78348945 16.66038762 34 12 C29.71208665 9.1413911 26.03087694 9.14583672 21 10 C17.12701885 11.88165701 12.97629814 14.04740372 11 18 C10.84254174 21.0604194 10.74133123 24.101419 10.68359375 27.1640625 C10.66281265 28.07127045 10.64203156 28.97847839 10.62062073 29.91317749 C10.55512865 32.8170398 10.49624186 35.72099405 10.4375 38.625 C10.39431445 40.59115542 10.35070015 42.55730147 10.30664062 44.5234375 C10.19944761 49.34886362 10.09817919 54.1743824 10 59 C8.52093108 59.02689216 7.04172517 59.04634621 5.5625 59.0625 C4.73878906 59.07410156 3.91507813 59.08570313 3.06640625 59.09765625 C1 59 1 59 0 58 C-0.09376053 56.18944975 -0.1174411 54.37522799 -0.11352539 52.56225586 C-0.11344986 51.40112778 -0.11337433 50.23999969 -0.11329651 49.04368591 C-0.10813522 47.780168 -0.10297394 46.51665009 -0.09765625 45.21484375 C-0.0962413 43.92888809 -0.09482635 42.64293243 -0.09336853 41.31800842 C-0.08954418 37.89356557 -0.07971462 34.46916491 -0.06866455 31.04473877 C-0.05844864 27.55261811 -0.05387053 24.06049066 -0.04882812 20.56835938 C-0.03809227 13.71222222 -0.02101684 6.85611313 0 0 Z " fill="#000000" transform="translate(1050,45)"/>
<path d="M0 0 C3.63 0 7.26 0 11 0 C13.06612348 5.35564408 14.88535546 10.70625346 16.48046875 16.21875 C16.80704216 17.33376892 16.80704216 17.33376892 17.14021301 18.47131348 C17.8254778 20.81339165 18.50656065 23.15666104 19.1875 25.5 C19.65532125 27.10164364 20.12341775 28.70320691 20.59179688 30.3046875 C21.73104449 34.20220435 22.86654693 38.10079426 24 42 C26.23427924 38.08302718 27.32206093 33.85403526 28.56640625 29.55078125 C28.80536118 28.73755905 29.0443161 27.92433685 29.29051208 27.08647156 C30.05142699 24.49618217 30.80746862 21.90450999 31.5625 19.3125 C32.32129948 16.70983938 33.08121841 14.10753802 33.84519958 11.50639343 C34.32018153 9.88914346 34.79215328 8.27100589 35.26087952 6.65193176 C36.8873786 1.1126214 36.8873786 1.1126214 38 0 C39.85287502 -0.07226502 41.70833878 -0.0838122 43.5625 -0.0625 C44.57441406 -0.05347656 45.58632813 -0.04445312 46.62890625 -0.03515625 C47.41136719 -0.02355469 48.19382812 -0.01195312 49 0 C51.02344754 5.26360384 52.84126378 10.52503379 54.4453125 15.9296875 C54.66065643 16.64609406 54.87600037 17.36250061 55.09786987 18.10061646 C55.77615505 20.35798182 56.45089426 22.61638336 57.125 24.875 C57.80657619 27.15493728 58.48896054 29.43462021 59.17355347 31.71365356 C59.59720429 33.12429706 60.01908541 34.53547354 60.43899536 35.94723511 C61.51492568 39.55176526 61.51492568 39.55176526 63 43 C63.35827881 41.76846191 63.71655762 40.53692383 64.08569336 39.26806641 C65.41254124 34.70907224 66.74189724 30.15081267 68.07202148 25.59277344 C68.64790448 23.61803896 69.2231025 21.64310459 69.79760742 19.66796875 C70.62239455 16.83280746 71.44962365 13.99836869 72.27734375 11.1640625 C72.66332985 9.83430893 72.66332985 9.83430893 73.05711365 8.47769165 C73.29728714 7.65699188 73.53746063 6.83629211 73.78491211 5.99072266 C73.99587021 5.26680328 74.20682831 4.54288391 74.42417908 3.79702759 C75 2 75 2 76 0 C78.97 0 81.94 0 85 0 C86.06043547 4.24174187 85.86231056 5.31135047 84.56884766 9.3034668 C84.23164703 10.36103683 83.89444641 11.41860687 83.54702759 12.50822449 C83.17314911 13.64375259 82.79927063 14.7792807 82.4140625 15.94921875 C82.03768646 17.11757767 81.66131042 18.28593658 81.27352905 19.48970032 C80.47623346 21.95831795 79.67398815 24.42534161 78.8671875 26.89086914 C77.62750595 30.6798408 76.40230971 34.47307223 75.1796875 38.26757812 C74.40448134 40.66172903 73.62846731 43.05561853 72.8515625 45.44921875 C72.48173248 46.59081955 72.11190247 47.73242035 71.73086548 48.90861511 C71.38736053 49.95672867 71.04385559 51.00484222 70.68994141 52.0847168 C70.38714264 53.01197067 70.08434387 53.93922455 69.77236938 54.89457703 C69 57 69 57 68 58 C66.14712498 58.07226502 64.29166122 58.0838122 62.4375 58.0625 C61.42558594 58.05347656 60.41367187 58.04445312 59.37109375 58.03515625 C58.19740234 58.01775391 58.19740234 58.01775391 57 58 C54.97101416 52.72529867 53.15537606 47.45358088 51.5546875 42.03515625 C51.11328816 40.56184689 50.67188172 39.08853965 50.23046875 37.61523438 C49.54715849 35.32211244 48.86494228 33.02866788 48.18310547 30.73510742 C47.51790869 28.50100126 46.84894713 26.26804803 46.1796875 24.03515625 C45.97552216 23.34357925 45.77135681 22.65200226 45.56100464 21.93946838 C44.77247307 18.70641533 44.77247307 18.70641533 43 16 C42.64172119 17.20124512 42.28344238 18.40249023 41.91430664 19.64013672 C40.58738369 24.08730612 39.25805015 28.53375187 37.92797852 32.97998047 C37.35212234 34.90621532 36.77692436 36.83264706 36.20239258 38.75927734 C35.37753571 41.52493205 34.55033179 44.28987523 33.72265625 47.0546875 C33.46533218 47.9193161 33.20800812 48.7839447 32.94288635 49.67477417 C32.70271286 50.47545319 32.46253937 51.2761322 32.21508789 52.10107422 C32.00412979 52.8072287 31.79317169 53.51338318 31.57582092 54.24093628 C31 56 31 56 30 58 C26.04 58 22.08 58 18 58 C15.6500046 50.734042 13.30246536 43.46729939 10.95927429 36.19914436 C9.87120292 32.82448189 8.78204756 29.45017726 7.69042969 26.07666016 C6.43624094 22.20057583 5.1867418 18.32299406 3.9375 14.4453125 C3.54377197 13.23070343 3.15004395 12.01609436 2.74438477 10.76467896 C2.38401123 9.64366791 2.0236377 8.52265686 1.65234375 7.36767578 C1.33257568 6.37728302 1.01280762 5.38689026 0.68334961 4.3664856 C0 2 0 2 0 0 Z " fill="#010101" transform="translate(553,45)"/>
<path d="M0 0 C5.93608971 4.16231758 10.67601623 9.02804869 13 16 C13.03954234 18.33299825 13.04401732 20.66708189 13 23 C9.37 23 5.74 23 2 23 C1.443125 21.4325 0.88625 19.865 0.3125 18.25 C-1.81989947 13.00044715 -3.75046972 10.42556022 -9.0390625 8.10546875 C-16.67102807 5.23364665 -23.16930428 5.10720091 -30.828125 7.97265625 C-37.67254667 11.21021542 -40.71983414 15.50719569 -43.2734375 22.53515625 C-46.60805724 33.84776407 -45.72507047 45.20817238 -41 56 C-37.60479785 61.53150913 -33.40014833 64.70637461 -27.11328125 66.5546875 C-19.97798933 68.05824254 -12.48919221 67.39236979 -6 64 C-1.21425438 59.63040618 0.25361261 55.0663983 2 49 C5.96 49 9.92 49 14 49 C12.37669409 58.87511094 10.10612316 64.97335987 2.26171875 71.42578125 C-7.69311715 78.35462212 -19.14592901 78.92752455 -30.78515625 76.8515625 C-40.49452758 74.27969986 -47.27309748 69.17333294 -52.3984375 60.68359375 C-59.15493245 48.20555828 -59.74214022 34.28582843 -55.9140625 20.7265625 C-53.73620363 14.23021425 -51.20934507 9.58918494 -46 5 C-45.13375 4.154375 -44.2675 3.30875 -43.375 2.4375 C-31.99180306 -6.60041516 -12.4752793 -7.1257458 0 0 Z " fill="#010101" transform="translate(955,27)"/>
<path d="M0 0 C3.96 0 7.92 0 12 0 C15.53989685 8.3597787 18.84386476 16.76915115 21.9765625 25.2890625 C22.42848969 26.51354095 22.88041687 27.73801941 23.34603882 28.99960327 C24.29389382 31.56878249 25.23989721 34.13863357 26.18457031 36.70898438 C27.38537403 39.97568037 28.59121222 43.24049157 29.79848671 46.5048008 C30.96489424 49.66099466 32.12674447 52.81886032 33.2890625 55.9765625 C33.71724274 57.13411041 34.14542297 58.29165833 34.58657837 59.48428345 C36.95326994 65.9370468 39.09776352 72.39494802 41 79 C37.04 79 33.08 79 29 79 C27.82956003 75.70963048 26.66349466 72.41782464 25.5 69.125 C25.16613281 68.18785156 24.83226562 67.25070313 24.48828125 66.28515625 C24.17246094 65.38925781 23.85664062 64.49335937 23.53125 63.5703125 C23.23798828 62.74289551 22.94472656 61.91547852 22.64257812 61.06298828 C22 59 22 59 22 57 C11.44 57 0.88 57 -10 57 C-10.99 60.63 -11.98 64.26 -13 68 C-14.24429712 71.7079222 -15.62098187 75.33846911 -17 79 C-20.96 79 -24.92 79 -29 79 C-28.3803675 74.40180558 -27.17013258 70.384441 -25.53149414 66.04833984 C-25.28096786 65.38089249 -25.03044159 64.71344513 -24.77232361 64.02577209 C-23.94860515 61.83543914 -23.11703762 59.64818182 -22.28515625 57.4609375 C-21.70802962 55.93225715 -21.1313302 54.40341545 -20.55503845 52.87442017 C-19.34874537 49.67736034 -18.13882849 46.48170519 -16.92602539 43.28710938 C-15.37286177 39.19575719 -13.82642244 35.10190595 -12.28238773 31.00710106 C-11.0926233 27.85284603 -9.90050326 24.69948584 -8.70754814 21.54643631 C-8.13657258 20.03714567 -7.56604909 18.52768393 -6.99598885 17.01804733 C-6.19883501 14.90880985 -5.39880761 12.80068574 -4.59790039 10.69287109 C-4.14347061 9.49407318 -3.68904083 8.29527527 -3.22084045 7.06015015 C-2 4 -2 4 0 0 Z M5 14 C3.28898006 18.68065582 1.58003704 23.36206251 -0.12695312 28.04418945 C-0.70840801 29.63814982 -1.2904382 31.23190045 -1.87304688 32.82543945 C-2.70853218 35.11094645 -3.54197139 37.39719037 -4.375 39.68359375 C-4.63748535 40.40026718 -4.8999707 41.11694061 -5.17041016 41.85533142 C-6.44833028 44.8529868 -6.44833028 44.8529868 -7 48 C1.58 48 10.16 48 19 48 C17.61362727 43.96110231 16.22648851 39.92248442 14.83740234 35.88452148 C14.3655984 34.51228021 13.89423818 33.13988629 13.42333984 31.76733398 C12.74434626 29.78849118 12.06373103 27.81021239 11.3828125 25.83203125 C10.97434082 24.64327393 10.56586914 23.4545166 10.14501953 22.22973633 C9.16121064 19.45472399 8.11800056 16.72316201 7 14 C6.34 14 5.68 14 5 14 Z " fill="#010101" transform="translate(513,24)"/>
<path d="M0 0 C3.63 0 7.26 0 11 0 C11.02312376 10.28304538 11.04091525 20.56608462 11.05181217 30.84915066 C11.05704093 35.6234828 11.06413844 40.39779721 11.07543945 45.17211914 C11.0862686 49.77566262 11.09227689 54.37918899 11.09487724 58.98274422 C11.09673144 60.74309623 11.10035196 62.50344726 11.10573006 64.26379204 C11.11294086 66.72072277 11.11399093 69.17758195 11.11352539 71.63452148 C11.11712067 72.36963455 11.12071594 73.10474762 11.12442017 73.86213684 C11.11405216 78.88594784 11.11405216 78.88594784 10 80 C8.48071962 80.07179964 6.95832518 80.08392007 5.4375 80.0625 C4.19806641 80.04896484 4.19806641 80.04896484 2.93359375 80.03515625 C1.97646484 80.01775391 1.97646484 80.01775391 1 80 C0.34 78.02 -0.32 76.04 -1 74 C-1.6290625 74.42152344 -2.258125 74.84304687 -2.90625 75.27734375 C-10.07901061 79.86834264 -15.05136933 81.87264314 -23.625 80.3125 C-29.94195281 78.68161718 -34.40617454 75.45270069 -38 70 C-43.36989118 58.20541759 -43.41240548 46.02738344 -39.19140625 33.8203125 C-36.66011402 27.82820435 -33.11506523 24.42387329 -27.171875 21.75390625 C-20.47089069 19.42784515 -14.63181711 19.64677457 -8 22 C-5.69 23.65 -3.38 25.3 -1 27 C-0.67 18.09 -0.34 9.18 0 0 Z M-27.4375 34.1875 C-32.06026498 42.50847696 -32.1607269 52.28619243 -29.875 61.375 C-28.23466675 66.21898881 -26.36657377 68.3458081 -22 71 C-17.15472168 72.57998206 -12.64777683 71.99318122 -8 70 C-4.80109202 67.79152315 -1.75872998 65.51745996 0 62 C0.34877385 58.2785218 0.37091443 54.54817987 0.4375 50.8125 C0.48326172 49.78318359 0.52902344 48.75386719 0.57617188 47.69335938 C0.65148044 42.58219985 0.57451992 38.9544813 -2.7265625 34.8828125 C-5.20346837 32.45795941 -7.41326277 30.94850221 -10.8125 30.0625 C-11.58207031 29.84722656 -12.35164062 29.63195312 -13.14453125 29.41015625 C-18.15903215 28.30168763 -23.77517635 30.90079929 -27.4375 34.1875 Z " fill="#000000" transform="translate(789,24)"/>
<path d="M0 0 C3.63 0 7.26 0 11 0 C11 26.4 11 52.8 11 80 C7.7 80 4.4 80 1 80 C0.505 76.535 0.505 76.535 0 73 C-0.44988281 73.40992187 -0.89976562 73.81984375 -1.36328125 74.2421875 C-7.4617446 79.35071993 -13.46480036 81.36079998 -21.45703125 80.83984375 C-26.75648829 79.90995606 -31.30421813 77.98077998 -35 74 C-42.04308881 62.7420057 -42.79196522 49.62182601 -40.38671875 36.70703125 C-37.99686989 29.91649153 -33.18292102 25.39963249 -27.01171875 21.859375 C-21.25698332 19.40104142 -15.24248238 19.84048374 -9.23828125 21.0390625 C-7 22 -7 22 -1 27 C-0.67 18.09 -0.34 9.18 0 0 Z M-25.8125 33.25 C-31.52426297 40.43050202 -30.87864603 50.26724664 -30 59 C-28.89283133 63.60223085 -27.27505094 66.72494906 -23.9375 70.0625 C-18.53022443 71.78822624 -12.89198835 72.2174338 -7.578125 69.98046875 C-4.17416784 67.92442893 -2.23448616 66.35172924 0 63 C0.54251345 59.1224977 0.50898545 55.22371549 0.5625 51.3125 C0.61212891 50.24837891 0.66175781 49.18425781 0.71289062 48.08789062 C0.8022077 41.20196969 -0.22591484 37.46297354 -5.04907227 32.47583008 C-11.64306359 27.48763366 -19.48487229 28.18789783 -25.8125 33.25 Z " fill="#000000" transform="translate(439,24)"/>
<path d="M0 0 C3.3 0 6.6 0 10 0 C10 26.4 10 52.8 10 80 C7.03 80 4.06 80 1 80 C0.34 77.69 -0.32 75.38 -1 73 C-1.47308594 73.40992187 -1.94617188 73.81984375 -2.43359375 74.2421875 C-8.29042269 79.01441849 -13.12860628 81.16006008 -20.734375 80.91015625 C-27.84207763 80.03641933 -32.43517942 77.52300226 -37 72 C-43.35862092 62.07389699 -43.71650454 49.10190142 -41.31640625 37.7734375 C-38.79345022 31.01065909 -34.96635941 25.64797745 -28.625 22.125 C-21.66447607 19.9648374 -14.84226707 18.9452152 -8 22 C-5.69 23.98 -3.38 25.96 -1 28 C-0.67 18.76 -0.34 9.52 0 0 Z M-26.8125 33.75 C-31.9101457 41.32364504 -31.61689033 49.14525111 -31 58 C-29.97642499 62.99833343 -28.02579274 66.75339295 -24 70 C-20.04474536 71.97762732 -15.31019688 71.42863836 -11 71 C-6.130568 69.36500824 -2.65209655 66.3510083 0 62 C0.64112915 58.38756365 0.64929615 54.84892945 0.625 51.1875 C0.65722656 50.22779297 0.68945312 49.26808594 0.72265625 48.27929688 C0.731122 42.07813543 -0.30434374 38.25473649 -4.38720703 33.5168457 C-6.39493472 31.62856049 -8.07170085 30.66495703 -10.75 30 C-11.50796875 29.79375 -12.2659375 29.5875 -13.046875 29.375 C-18.48164507 28.33152415 -22.90054226 29.92497465 -26.8125 33.75 Z " fill="#000000" transform="translate(160,24)"/>
<path d="M0 0 C7.09766733 8.33764114 5.28091324 21.68509613 5.20581055 32.01025391 C5.18729645 34.65406723 5.18530311 37.29753419 5.18554688 39.94140625 C5.18063989 41.61979472 5.17481519 43.29818082 5.16796875 44.9765625 C5.16685593 45.76809723 5.1657431 46.55963196 5.16459656 47.37515259 C5.11613494 52.88386506 5.11613494 52.88386506 4 54 C2.48071962 54.07179964 0.95832518 54.08392007 -0.5625 54.0625 C-1.38878906 54.05347656 -2.21507812 54.04445312 -3.06640625 54.03515625 C-3.70449219 54.02355469 -4.34257813 54.01195312 -5 54 C-5.66 51.69 -6.32 49.38 -7 47 C-7.52207031 47.40992188 -8.04414062 47.81984375 -8.58203125 48.2421875 C-15.14295793 53.04510756 -21.25170205 55.2929069 -29.453125 54.875 C-35.1569248 53.94376738 -39.2314328 51.36360413 -43 47 C-45.75974821 42.54760622 -45.51485179 38.08416143 -45 33 C-43.33151214 28.25798186 -41.24410386 25.67563069 -37 23 C-29.48937587 19.94112763 -22.22852956 18.84865072 -14.1875 18.4375 C-13.39923828 18.39431641 -12.61097656 18.35113281 -11.79882812 18.30664062 C-9.86605785 18.20121679 -7.93304974 18.10016906 -6 18 C-6.84197561 11.27130884 -6.84197561 11.27130884 -9.9375 5.375 C-14.62773154 3.26918176 -18.94832975 3.28150731 -24 4 C-27.63019085 5.33481258 -27.63019085 5.33481258 -30 8 C-31.43917432 11.61416517 -31.43917432 11.61416517 -32 15 C-35.63 15 -39.26 15 -43 15 C-42.01086671 7.779327 -40.86996962 2.66221038 -35 -2 C-24.82005569 -7.6999275 -8.95094164 -8.00873726 0 0 Z M-32.28125 30.859375 C-34.62583683 33.77945133 -34.51619079 35.49082308 -34.328125 39.09765625 C-33.87112031 41.74719535 -32.96318127 43.18223956 -31 45 C-25.45016184 46.84994605 -20.08828013 46.82463183 -14.75 44.3125 C-11.18395036 42.24419121 -8.35974837 40.46588042 -6 37 C-5.597022 33.29469584 -5.70757615 29.71053369 -6 26 C-19.93420956 25.3011835 -19.93420956 25.3011835 -32.28125 30.859375 Z " fill="#000000" transform="translate(690,50)"/>
<path d="M0 0 C6.51063035 5.85956732 10.07603886 11.35308592 10.71484375 20.23828125 C10.7462934 22.93246833 10.74913507 25.56700699 10.5 28.25 C9.5 29.25 9.5 29.25 5.71459961 29.36352539 C4.02717271 29.36336622 2.33974095 29.35766917 0.65234375 29.34765625 C-0.67729652 29.34553383 -0.67729652 29.34553383 -2.03379822 29.34336853 C-4.87673254 29.33775215 -7.71958931 29.32519691 -10.5625 29.3125 C-12.48502491 29.30748711 -14.40755104 29.30292384 -16.33007812 29.29882812 C-21.05341549 29.28777741 -25.77669458 29.27050183 -30.5 29.25 C-29.89521061 31.18626663 -29.27990412 33.11925044 -28.66015625 35.05078125 C-28.14787476 36.66593628 -28.14787476 36.66593628 -27.62524414 38.3137207 C-26.15849292 42.14114898 -24.75862804 43.82691761 -21.5 46.25 C-16.3219613 47.9760129 -11.39657662 47.82255143 -6.1875 46.25 C-2.41634608 43.44355987 -1.33365362 40.55203349 0.5 36.25 C3.8 36.25 7.1 36.25 10.5 36.25 C10.09820089 42.07608707 9.45017978 45.69210025 5.5 50.25 C-1.00541371 55.90892614 -9.01853612 57.59927403 -17.50390625 57.05859375 C-25.67994396 55.8238452 -31.00242716 52.5629305 -36.1796875 46.15234375 C-41.37316663 38.66943151 -42.08702836 29.50475868 -41.09765625 20.6484375 C-39.44905358 11.5372251 -36.71893843 5.89362864 -29.75 -0.125 C-20.24015155 -4.87992422 -9.55300726 -4.77650363 0 0 Z M-28.375 11.625 C-29.82110134 14.71231397 -29.82110134 14.71231397 -30.5 20.25 C-20.6 20.25 -10.7 20.25 -0.5 20.25 C-1.1394519 12.43684522 -1.1394519 12.43684522 -5.5 7.25 C-13.27804137 2.58317518 -22.86913125 4.65089958 -28.375 11.625 Z " fill="#000000" transform="translate(1397.5,47.75)"/>
<path d="M0 0 C5.95748651 8.37268374 5.3125 13.35463003 5.3125 24.25 C-7.8875 24.25 -21.0875 24.25 -34.6875 24.25 C-32.83877678 34.87532175 -32.83877678 34.87532175 -26.6875 41.25 C-21.32962561 43.03595813 -15.7971896 42.51850595 -10.25 41.8125 C-6.1284115 39.29933628 -5.86315812 35.82200379 -4.6875 31.25 C-1.3875 31.25 1.9125 31.25 5.3125 31.25 C5.12251581 37.42448613 4.54922777 41.2473934 0.17578125 45.74609375 C-6.38540667 51.04181146 -14.22231504 52.74544913 -22.48828125 51.99609375 C-30.72223467 50.75932943 -36.15837397 47.72535366 -41.36328125 41.1953125 C-47.057886 32.82978694 -46.72281365 21.99709928 -45.6875 12.25 C-44.13980804 5.72588312 -41.33244137 -0.21658531 -35.71484375 -4.12109375 C-23.82335887 -11.32125527 -9.80382712 -10.0318231 0 0 Z M-33.0625 7.1875 C-35.07809651 10.40830426 -35.07809651 10.40830426 -34.6875 15.25 C-24.7875 15.25 -14.8875 15.25 -4.6875 15.25 C-6.32142458 7.6279551 -6.32142458 7.6279551 -10.6875 2.25 C-18.96219076 -2.71481446 -27.33310328 0.1011409 -33.0625 7.1875 Z " fill="#010101" transform="translate(1465.6875,52.75)"/>
<path d="M0 0 C4.17624636 3.60675822 6.73902253 6.58803588 7.16998291 12.22232056 C7.23172935 15.00081139 7.22457306 17.77175607 7.1953125 20.55078125 C7.1924826 21.56472458 7.18965271 22.57866791 7.18673706 23.62333679 C7.17556625 26.85317927 7.15046711 30.08274171 7.125 33.3125 C7.1149662 35.50585536 7.10584105 37.69921508 7.09765625 39.89257812 C7.07563701 45.2618262 7.04112825 50.63086566 7 56 C4.03 56 1.06 56 -2 56 C-2.66 53.69 -3.32 51.38 -4 49 C-4.52207031 49.40992188 -5.04414063 49.81984375 -5.58203125 50.2421875 C-12.08357753 55.00163819 -18.3546146 57.51560021 -26.5234375 56.76953125 C-32.48142562 55.61158339 -36.53042342 53.90647772 -40.3125 49 C-42.79996611 44.21797332 -42.77674653 39.24700208 -42 34 C-39.67303014 29.07756376 -36.80825608 26.48998975 -32 24 C-22.57968844 20.64523086 -12.88693843 20.33971708 -3 20 C-3.84197561 13.27130884 -3.84197561 13.27130884 -6.9375 7.375 C-11.59887178 5.2821392 -15.9747051 5.36522591 -21 6 C-24.74030185 7.60298651 -25.73158465 8.59737698 -28 12 C-28.33 13.65 -28.66 15.3 -29 17 C-32.63 17 -36.26 17 -40 17 C-39.50948163 9.88748365 -37.95088084 5.79557132 -32.625 0.75 C-23.59004806 -5.2733013 -9.18786963 -6.12524642 0 0 Z M-29.25390625 32.95703125 C-31.34558316 35.40434003 -31.8436371 36.79456046 -32 40 C-31.25276729 42.85307036 -30.35896818 44.58359691 -28.4375 46.8125 C-23.47774353 49.22879161 -18.50849209 48.46815272 -13.375 46.875 C-7.48786605 43.76217274 -7.48786605 43.76217274 -3 39 C-2.422911 35.25922669 -2.57943288 31.75172571 -3 28 C-16.98323436 27.25173286 -16.98323436 27.25173286 -29.25390625 32.95703125 Z " fill="#010101" transform="translate(310,48)"/>
<path d="M0 0 C7.62514683 0.50834312 15.29592343 2.64287536 20.75 8.25 C26.90076085 16.80544661 28.66735629 25.86270421 27.75 36.25 C26.11152869 45.24365272 23.29796424 51.78936192 15.7265625 57.171875 C7.77682605 61.50809488 -2.63859519 61.79277754 -11.3046875 59.41015625 C-18.21839992 56.28952922 -22.47683541 51.69302459 -25.27734375 44.67578125 C-28.45183371 34.42086206 -28.2562171 24.25036768 -24.25 14.25 C-20.78489255 7.7307113 -16.01607025 4.05901834 -9.25 1.25 C-6.09787969 0.43044872 -3.24135619 0.24933509 0 0 Z M-12.5 14.9375 C-16.83081208 23.13510859 -17.39555071 31.56547625 -15.0625 40.5 C-13.31980712 45.76898693 -10.76788601 48.6673288 -6.0625 51.625 C-0.93897994 52.76356001 4.10229509 52.58617883 8.84765625 50.19140625 C14.03883414 46.30077823 15.69736337 41.49943727 16.75 35.25 C17.5536262 28.6059355 16.43850244 22.37678644 13.75 16.25 C10.85721095 12.59595067 8.28214013 10.40938469 3.75 9.25 C-3.15599962 8.70190479 -7.81167938 9.33756148 -12.5 14.9375 Z " fill="#010101" transform="translate(1007.25,43.75)"/>
<path d="M0 0 C3.30994909 4.08227055 3.56840389 7.90716585 4 13 C0.37 13 -3.26 13 -7 13 C-7.3403125 11.3603125 -7.3403125 11.3603125 -7.6875 9.6875 C-8.68707721 6.01667672 -8.68707721 6.01667672 -11 4.0625 C-15.36239819 2.51748397 -19.42200667 2.41461725 -24 3 C-27.03465702 4.31227434 -27.03465702 4.31227434 -29 6 C-28.67 8.31 -28.34 10.62 -28 13 C-27.04480469 13.31453125 -26.08960938 13.6290625 -25.10546875 13.953125 C-22.41547846 14.84059487 -19.73027669 15.74125671 -17.046875 16.6484375 C-14.62749017 17.46512186 -12.21118658 18.2381683 -9.765625 18.9765625 C-3.4180924 20.99304385 0.35331066 23.34902339 4 29 C6.08809183 33.17618366 5.63742412 38.60622022 4.45703125 43.0390625 C2.19491576 47.86066077 -1.53816149 49.94921366 -6.29296875 52.05859375 C-14.75550938 55.00155521 -24.19816475 54.7190119 -32.3671875 50.890625 C-36.02598352 48.71947132 -38.74932857 46.67808842 -41 43 C-41.66306772 39.65935346 -41.77559069 36.41102151 -42 33 C-38.7 33 -35.4 33 -32 33 C-31.38151042 34.98567708 -30.76302083 36.97135417 -30.14453125 38.95703125 C-28.55709167 41.7905838 -26.93691674 42.6582403 -24 44 C-21.05075193 44.47082436 -21.05075193 44.47082436 -18 44.375 C-16.989375 44.38273437 -15.97875 44.39046875 -14.9375 44.3984375 C-11.55456613 43.93958211 -9.66310518 43.12855785 -7 41 C-6.25398438 39.07470051 -6.25398438 39.07470051 -6.4375 37 C-6.43621094 36.319375 -6.43492187 35.63875 -6.43359375 34.9375 C-7.27885192 32.04613413 -8.36203115 31.4830977 -11 30 C-14.85246409 28.61119406 -18.79762143 27.53312522 -22.73828125 26.42578125 C-28.98525429 24.57445961 -35.65323645 22.38639197 -39.5078125 16.82421875 C-41.06615114 11.42921094 -41.49053536 7.17352117 -39 2 C-34.98771119 -3.01536101 -30.65378687 -5.39475036 -24.4375 -6.8125 C-15.43064749 -7.6265809 -6.68989898 -6.25360122 0 0 Z " fill="#010101" transform="translate(227,51)"/>
<path d="M0 0 C2.37458648 3.95764414 2.41354952 7.22382948 2.6875 11.8125 C-0.6125 11.8125 -3.9125 11.8125 -7.3125 11.8125 C-7.539375 10.53375 -7.76625 9.255 -8 7.9375 C-8.8238115 4.6003535 -8.8238115 4.6003535 -11.3125 2.3125 C-17.03613871 1.35856021 -24.2876628 0.40857803 -29.3125 3.8125 C-30.56403259 6.15345531 -30.56403259 6.15345531 -30.3125 8.8125 C-26.45429018 14.34481811 -19.31303329 15.26878805 -13.19726562 17.08007812 C-6.81593662 19.06205451 -0.9852988 21.1355558 3.1015625 26.7578125 C4.76336083 32.58518531 4.60021412 38.84665421 2.0625 44.3125 C-4.18943914 50.89348857 -10.42343514 52.31922234 -19.3125 52.8125 C-26.80934744 52.45896064 -33.63588198 50.96139222 -39.3125 45.8125 C-42.40215964 41.3275102 -42.85533061 37.11566497 -43.3125 31.8125 C-40.0125 31.8125 -36.7125 31.8125 -33.3125 31.8125 C-32.43359375 34.09114583 -31.5546875 36.36979167 -30.67578125 38.6484375 C-28.88805177 41.48626596 -27.51879791 41.94480433 -24.3125 42.8125 C-19.43138373 43.35250855 -14.85363325 43.33648531 -10.1875 41.75 C-7.44419563 38.91525216 -7.3125 36.68678794 -7.3125 32.8125 C-9.49264037 29.85364144 -11.9929485 29.03070909 -15.42578125 27.9453125 C-16.42673828 27.61660156 -17.42769531 27.28789063 -18.45898438 26.94921875 C-20.55676653 26.27886023 -22.65571694 25.61214581 -24.75585938 24.94921875 C-31.41201785 22.75469312 -36.64982314 20.81802542 -40.66796875 14.7734375 C-42.22429651 10.0384282 -41.71419761 5.30451969 -40.4375 0.5625 C-36.57618374 -4.43449751 -30.95432853 -6.43981268 -25 -8.125 C-15.08537958 -8.29304441 -7.31192445 -6.91668529 0 0 Z " fill="#010101" transform="translate(857.3125,52.1875)"/>
<path d="M0 0 C3.3 0 6.6 0 10 0 C10.33 2.31 10.66 4.62 11 7 C11.61488281 6.57847656 12.22976563 6.15695313 12.86328125 5.72265625 C13.67152344 5.17480469 14.47976563 4.62695312 15.3125 4.0625 C16.11300781 3.51722656 16.91351563 2.97195312 17.73828125 2.41015625 C23.31444242 -1.06651764 29.64842534 -0.4302175 36 0 C41.530805 1.84360167 44.33023604 4.94916959 47.09716797 10.00463867 C48.45401805 14.50631352 48.24453485 18.87588272 48.1953125 23.55078125 C48.1924826 24.56472458 48.18965271 25.57866791 48.18673706 26.62333679 C48.17556625 29.85317927 48.15046711 33.08274171 48.125 36.3125 C48.1149662 38.50585536 48.10584105 40.69921508 48.09765625 42.89257812 C48.07563701 48.2618262 48.04112825 53.63086566 48 59 C44.7 59 41.4 59 38 59 C37.98541748 57.86570557 37.97083496 56.73141113 37.95581055 55.56274414 C37.8974506 51.31878525 37.82022272 47.0753362 37.73754883 42.83178711 C37.70447569 41.00179372 37.67639001 39.17170263 37.65356445 37.34155273 C37.61969193 34.69733387 37.56736359 32.05399621 37.51171875 29.41015625 C37.50532883 28.60353043 37.4989389 27.7969046 37.49235535 26.96583557 C37.34965441 21.34169058 36.45671286 16.11512 34 11 C30.30529428 9.15264714 26.04095394 9.65754628 22 10 C17.26385175 11.69786447 14.13428532 14.07224104 11 18 C10.26289028 21.15069084 10.27840662 24.23175201 10.29296875 27.45703125 C10.27784744 28.35999435 10.26272614 29.26295746 10.24714661 30.19328308 C10.20428851 33.06660979 10.19543351 35.93888558 10.1875 38.8125 C10.1643542 40.76500186 10.13898869 42.71747876 10.11132812 44.66992188 C10.04849442 49.44670741 10.01614441 54.22283772 10 59 C6.7 59 3.4 59 0 59 C0 39.53 0 20.06 0 0 Z " fill="#000000" transform="translate(335,45)"/>
<path d="M0 0 C2.57161458 0.03255208 5.14322917 0.06510417 7.71484375 0.09765625 C7.71484375 4.38765625 7.71484375 8.67765625 7.71484375 13.09765625 C12.33484375 13.09765625 16.95484375 13.09765625 21.71484375 13.09765625 C21.71484375 16.06765625 21.71484375 19.03765625 21.71484375 22.09765625 C17.09484375 22.09765625 12.47484375 22.09765625 7.71484375 22.09765625 C7.80850737 27.00928518 7.91462971 31.92042866 8.03222656 36.83154297 C8.07047232 38.50171566 8.1053329 40.17196948 8.13671875 41.84228516 C8.18246536 44.24541182 8.240443 46.64798209 8.30078125 49.05078125 C8.31233246 49.79571838 8.32388367 50.54065552 8.33578491 51.3081665 C8.46378128 56.5250705 8.46378128 56.5250705 10.71484375 61.09765625 C13.35055943 62.01722427 13.35055943 62.01722427 16.33984375 62.34765625 C17.34273437 62.4971875 18.345625 62.64671875 19.37890625 62.80078125 C20.14976563 62.89875 20.920625 62.99671875 21.71484375 63.09765625 C21.71484375 65.73765625 21.71484375 68.37765625 21.71484375 71.09765625 C19.33859198 71.20649221 16.96740399 71.28532321 14.58984375 71.34765625 C13.9246875 71.38117188 13.25953125 71.4146875 12.57421875 71.44921875 C7.43517379 71.54998434 4.65037097 70.33522857 0.71484375 67.09765625 C-4.9611637 58.48578288 -3.40724584 47.00751705 -3.34765625 37.09765625 C-3.34263201 35.64062654 -3.33807074 34.18359515 -3.33398438 32.7265625 C-3.32305013 29.18355855 -3.30583625 25.64061828 -3.28515625 22.09765625 C-6.25515625 22.09765625 -9.22515625 22.09765625 -12.28515625 22.09765625 C-12.28515625 19.12765625 -12.28515625 16.15765625 -12.28515625 13.09765625 C-9.31515625 13.09765625 -6.34515625 13.09765625 -3.28515625 13.09765625 C-3.29675781 12.24300781 -3.30835938 11.38835938 -3.3203125 10.5078125 C-3.32933594 9.40308594 -3.33835937 8.29835938 -3.34765625 7.16015625 C-3.35925781 6.05800781 -3.37085938 4.95585938 -3.3828125 3.8203125 C-3.25076835 0.13892172 -3.25076835 0.13892172 0 0 Z " fill="#010101" transform="translate(1326.28515625,31.90234375)"/>
<path d="M0 0 C3.3 0 6.6 0 10 0 C10 4.29 10 8.58 10 13 C14.62 13 19.24 13 24 13 C24 15.97 24 18.94 24 22 C19.38 22 14.76 22 10 22 C10.09395795 26.59018937 10.20014291 31.17987741 10.31738281 35.76953125 C10.35552961 37.32902398 10.39040682 38.8886004 10.421875 40.44824219 C10.46783825 42.69756874 10.52577808 44.94632615 10.5859375 47.1953125 C10.59748871 47.8861795 10.60903992 48.57704651 10.62094116 49.28884888 C10.74860831 53.530983 11.46684578 57.04607596 13 61 C16.96 61.66 20.92 62.32 25 63 C25 65.64 25 68.28 25 71 C22.45716766 71.10871967 19.91904912 71.18762401 17.375 71.25 C16.66214844 71.28351563 15.94929688 71.31703125 15.21484375 71.3515625 C10.02685569 71.44675494 6.98211065 70.62010059 3 67 C0.07413905 61.51623188 -0.41271063 57.15248608 -0.29296875 51.00390625 C-0.28872391 50.17036118 -0.28447906 49.3368161 -0.28010559 48.47801208 C-0.26343314 45.83916689 -0.22580358 43.20111084 -0.1875 40.5625 C-0.17243833 38.76368297 -0.15875253 36.96485387 -0.14648438 35.16601562 C-0.11356728 30.77704385 -0.06186567 26.38865531 0 22 C-3.3 22 -6.6 22 -10 22 C-10.09765625 15.84765625 -10.09765625 15.84765625 -10 14 C-9 13 -9 13 -6.93359375 12.90234375 C-3.46679688 12.95117188 -3.46679688 12.95117188 0 13 C0 8.71 0 4.42 0 0 Z " fill="#010101" transform="translate(1285,32)"/>
<path d="M0 0 C3.3 0 6.6 0 10 0 C10.33 2.31 10.66 4.62 11 7 C11.9075 6.21625 12.815 5.4325 13.75 4.625 C19.03045268 0.29011675 22.19217284 -0.22692757 29 0 C29 3.3 29 6.6 29 10 C27.47375 10.2475 25.9475 10.495 24.375 10.75 C19.30078255 11.75044855 15.70929746 13.29070254 12 17 C11.85200244 20.01640392 11.76486804 23.01277613 11.71875 26.03125 C11.70034058 26.93750122 11.68193115 27.84375244 11.66296387 28.77746582 C11.60401652 31.68490915 11.55127937 34.59241189 11.5 37.5 C11.43257522 41.32304799 11.35890673 45.14589772 11.28125 48.96875 C11.26767456 49.85727661 11.25409912 50.74580322 11.2401123 51.66125488 C11.11280181 57.88719819 11.11280181 57.88719819 10 59 C6.7 59 3.4 59 0 59 C0 39.53 0 20.06 0 0 Z " fill="#000000" transform="translate(712,45)"/>
<path d="M0 0 C3.3 0 6.6 0 10 0 C10 19.47 10 38.94 10 59 C6.7 59 3.4 59 0 59 C-1.7182309 57.2817691 -1.12754321 55.01402251 -1.12939453 52.66992188 C-1.13254669 51.53204224 -1.13569885 50.3941626 -1.13894653 49.22180176 C-1.1369223 47.98329468 -1.13489807 46.7447876 -1.1328125 45.46875 C-1.13376923 44.20736206 -1.13472595 42.94597412 -1.13571167 41.6463623 C-1.13639375 38.97302862 -1.13503529 36.29978563 -1.13037109 33.62646484 C-1.12467381 30.19293309 -1.12795301 26.7594795 -1.13394356 23.32595062 C-1.13841762 20.06104757 -1.13528883 16.79615407 -1.1328125 13.53125 C-1.13483673 12.29274292 -1.13686096 11.05423584 -1.13894653 9.77819824 C-1.13579437 8.6403186 -1.13264221 7.50243896 -1.12939453 6.33007812 C-1.12859894 5.32271606 -1.12780334 4.315354 -1.12698364 3.27746582 C-1 1 -1 1 0 0 Z " fill="#000000" transform="translate(1255,45)"/>
<path d="M0 0 C3.3 0 6.6 0 10 0 C10 19.47 10 38.94 10 59 C6.7 59 3.4 59 0 59 C-1.7182309 57.2817691 -1.12754321 55.01402251 -1.12939453 52.66992188 C-1.13254669 51.53204224 -1.13569885 50.3941626 -1.13894653 49.22180176 C-1.1369223 47.98329468 -1.13489807 46.7447876 -1.1328125 45.46875 C-1.13376923 44.20736206 -1.13472595 42.94597412 -1.13571167 41.6463623 C-1.13639375 38.97302862 -1.13503529 36.29978563 -1.13037109 33.62646484 C-1.12467381 30.19293309 -1.12795301 26.7594795 -1.13394356 23.32595062 C-1.13841762 20.06104757 -1.13528883 16.79615407 -1.1328125 13.53125 C-1.13483673 12.29274292 -1.13686096 11.05423584 -1.13894653 9.77819824 C-1.13579437 8.6403186 -1.13264221 7.50243896 -1.12939453 6.33007812 C-1.12859894 5.32271606 -1.12780334 4.315354 -1.12698364 3.27746582 C-1 1 -1 1 0 0 Z " fill="#000000" transform="translate(93,45)"/>
<path d="M0 0 C1.25 6.625 1.25 6.625 -1 10 C-3.8125 10.9375 -3.8125 10.9375 -7 11 C-9.875 9.375 -9.875 9.375 -12 7 C-12.5 4.4375 -12.5 4.4375 -12 2 C-8.43725423 -2.7503277 -5.10550575 -1.92874662 0 0 Z " fill="#010101" transform="translate(103,25)"/>
<path d="M0 0 C1.25 6.625 1.25 6.625 -1 10 C-3.8125 10.9375 -3.8125 10.9375 -7 11 C-9.875 9.375 -9.875 9.375 -12 7 C-12.5 4.4375 -12.5 4.4375 -12 2 C-8.43725423 -2.7503277 -5.10550575 -1.92874662 0 0 Z " fill="#000000" transform="translate(1265,25)"/>
</svg>
